<svg width="40" height="40" viewBox="0 0 40 40" fill="none" xmlns="http://www.w3.org/2000/svg">
<path d="M6.6665 36.6667V6.66666C6.6665 6.40792 6.72675 6.15273 6.84246 5.92131C6.95817 5.68988 7.12618 5.48857 7.33317 5.33333C9.06413 4.03511 11.1695 3.33333 13.3332 3.33333C18.3332 3.33333 21.6665 6.66666 25.5548 6.66666C27.7771 6.66666 29.4809 6.22222 30.6665 5.33333C30.9141 5.14762 31.2086 5.03453 31.5168 5.00673C31.8251 4.97893 32.135 5.03753 32.4119 5.17595C32.6887 5.31437 32.9215 5.52715 33.0843 5.79044C33.247 6.05374 33.3332 6.35714 33.3332 6.66666V23.3333C33.3332 23.5921 33.2729 23.8473 33.1572 24.0787C33.0415 24.3101 32.8735 24.5114 32.6665 24.6667C30.9355 25.9649 28.8302 26.6667 26.6665 26.6667C21.6665 26.6667 18.3332 23.3333 13.3332 23.3333C10.8734 23.3334 8.49988 24.2401 6.6665 25.88" stroke="#3E41C0" stroke-width="2" stroke-linecap="round" stroke-linejoin="round"/>
</svg>
