<svg width="40" height="40" viewBox="0 0 40 40" fill="none" xmlns="http://www.w3.org/2000/svg">
<path d="M6.66699 36.6667V6.66671C6.66699 6.40797 6.72723 6.15278 6.84295 5.92135C6.95866 5.68993 7.12667 5.48862 7.33366 5.33337C9.06462 4.03515 11.17 3.33337 13.3337 3.33337C18.3337 3.33337 21.667 6.66671 25.5553 6.66671C27.7775 6.66671 29.4814 6.22226 30.667 5.33337C30.9146 5.14766 31.209 5.03457 31.5173 5.00678C31.8256 4.97898 32.1355 5.03757 32.4123 5.176C32.6892 5.31442 32.922 5.5272 33.0847 5.79049C33.2475 6.05378 33.3337 6.35719 33.3337 6.66671V23.3334C33.3337 23.5921 33.2734 23.8473 33.1577 24.0787C33.042 24.3102 32.874 24.5115 32.667 24.6667C30.936 25.9649 28.8307 26.6667 26.667 26.6667C21.667 26.6667 18.3337 23.3334 13.3337 23.3334C10.8739 23.3334 8.50037 24.2401 6.66699 25.88" stroke="#3E41C0" stroke-width="2" stroke-linecap="round" stroke-linejoin="round"/>
</svg>
